<?xml version="1.0" encoding="UTF-8" standalone="no"?> <svg xmlns="http://www.w3.org/2000/svg" xmlns:xlink="http://www.w3.org/1999/xlink" viewBox="0 0 64 64"><defs><style>.cls-1{fill:url(#linear-gradient);}.cls-2{fill:url(#linear-gradient-2);}.cls-3{fill:url(#linear-gradient-3);}.cls-4{fill:url(#linear-gradient-4);}.cls-5{fill:url(#linear-gradient-5);}</style><linearGradient id="linear-gradient" x1="10.5" y1="37.01" x2="53.5" y2="37.01" gradientUnits="userSpaceOnUse"><stop offset="0" stop-color="#17a6d7"/><stop offset="1" stop-color="#9d31fe"/></linearGradient><linearGradient id="linear-gradient-2" x1="8.34" y1="6.63" x2="55.66" y2="6.63" xlink:href="#linear-gradient"/><linearGradient id="linear-gradient-3" x1="19.27" y1="36.68" x2="22.27" y2="36.68" xlink:href="#linear-gradient"/><linearGradient id="linear-gradient-4" x1="30.5" y1="36.68" x2="33.5" y2="36.68" xlink:href="#linear-gradient"/><linearGradient id="linear-gradient-5" x1="41.73" y1="36.68" x2="44.73" y2="36.68" xlink:href="#linear-gradient"/></defs><g id="Layer_10" data-name="Layer 10"><path class="cls-1" d="M52,12.51H12A1.5,1.5,0,0,0,10.5,14V56.17a5.33,5.33,0,0,0,5.33,5.33H48.17a5.33,5.33,0,0,0,5.33-5.33V14A1.5,1.5,0,0,0,52,12.51ZM50.5,56.17a2.34,2.34,0,0,1-2.33,2.33H15.83a2.34,2.34,0,0,1-2.33-2.33V15.51h37Z"/><path class="cls-2" d="M54.18,7.75H43.83V4a1.5,1.5,0,0,0-1.5-1.5H21.67A1.5,1.5,0,0,0,20.17,4V7.75H9.82a1.5,1.5,0,0,0,0,3H54.18A1.5,1.5,0,0,0,54.18,7.75Zm-31,0V5.5H40.83V7.75Z"/><path class="cls-3" d="M20.77,52.72a1.5,1.5,0,0,0,1.5-1.5V22.15a1.5,1.5,0,0,0-3,0V51.22A1.5,1.5,0,0,0,20.77,52.72Z"/><path class="cls-4" d="M32,52.72a1.5,1.5,0,0,0,1.5-1.5V22.15a1.5,1.5,0,0,0-3,0V51.22A1.5,1.5,0,0,0,32,52.72Z"/><path class="cls-5" d="M43.23,52.72a1.5,1.5,0,0,0,1.5-1.5V22.15a1.5,1.5,0,0,0-3,0V51.22A1.5,1.5,0,0,0,43.23,52.72Z"/></g></svg>